HIERARCHY
ROOT joint_Root
{
	OFFSET 0.0 0.0 0.0
	CHANNELS 6 Xposition Yposition Zposition Zrotation Xrotation Yrotation 
	JOINT Hips
	{
		OFFSET -17.1583 93.1646 452.98
		CHANNELS 6 Xposition Yposition Zposition Zrotation Xrotation Yrotation 
		JOINT Spine
		{
			OFFSET 15.7357 0.0 0.0
			CHANNELS 6 Xposition Yposition Zposition Zrotation Xrotation Yrotation 
			JOINT Chest
			{
				OFFSET 8.98455 -0.406207 0.0
				CHANNELS 6 Xposition Yposition Zposition Zrotation Xrotation Yrotation 
				JOINT Neck
				{
					OFFSET 16.3773 0.0 0.0
					CHANNELS 6 Xposition Yposition Zposition Zrotation Xrotation Yrotation 
					JOINT Head
					{
						OFFSET 6.45672 0.0 0.0
						CHANNELS 6 Xposition Yposition Zposition Zrotation Xrotation Yrotation 
						End Site
						{
							OFFSET 0.0 0.0 0.0
						}
					}
				}
				JOINT Shoulder_L
				{
					OFFSET 12.9942 -0.242716 4.98039
					CHANNELS 6 Xposition Yposition Zposition Zrotation Xrotation Yrotation 
					JOINT UpperArm_L
					{
						OFFSET 5.34809 0.0 0.0
						CHANNELS 6 Xposition Yposition Zposition Zrotation Xrotation Yrotation 
						JOINT LowerArm_L
						{
							OFFSET 24.3286 1.87007e-05 0.0
							CHANNELS 6 Xposition Yposition Zposition Zrotation Xrotation Yrotation 
							JOINT Hand_L
							{
								OFFSET 22.2916 0.0 0.0
								CHANNELS 6 Xposition Yposition Zposition Zrotation Xrotation Yrotation 
								End Site
								{
									OFFSET 0.0 0.0 0.0
								}
							}
						}
					}
				}
				JOINT Shoulder_R
				{
					OFFSET 12.9945 -0.242716 -4.98039
					CHANNELS 6 Xposition Yposition Zposition Zrotation Xrotation Yrotation 
					JOINT UpperArm_R
					{
						OFFSET -5.34813 0.0 0.0
						CHANNELS 6 Xposition Yposition Zposition Zrotation Xrotation Yrotation 
						JOINT LowerArm_R
						{
							OFFSET -24.3289 0.000322201 0.0
							CHANNELS 6 Xposition Yposition Zposition Zrotation Xrotation Yrotation 
							JOINT Hand_R
							{
								OFFSET -22.2915 -0.000108084 0.0
								CHANNELS 6 Xposition Yposition Zposition Zrotation Xrotation Yrotation 
								End Site
								{
									OFFSET 0.0 0.0 0.0
								}
							}
						}
					}
				}
			}
		}
		JOINT UpperLeg_L
		{
			OFFSET -2.19248 -6.46944 0.0
			CHANNELS 6 Xposition Yposition Zposition Zrotation Xrotation Yrotation 
			JOINT LowerLeg_L
			{
				OFFSET 39.0811 0.0 -1.23785e-05
				CHANNELS 6 Xposition Yposition Zposition Zrotation Xrotation Yrotation 
				JOINT Foot_L
				{
					OFFSET 40.9854 0.0 -1.26872e-05
					CHANNELS 6 Xposition Yposition Zposition Zrotation Xrotation Yrotation 
					JOINT Toes_L
					{
						OFFSET 11.7543 0.0 0.0
						CHANNELS 6 Xposition Yposition Zposition Zrotation Xrotation Yrotation 
						End Site
						{
							OFFSET 0.0 0.0 0.0
						}
					}
				}
			}
		}
		JOINT UpperLeg_R
		{
			OFFSET -2.19251 6.46944 0.0
			CHANNELS 6 Xposition Yposition Zposition Zrotation Xrotation Yrotation 
			JOINT LowerLeg_R
			{
				OFFSET -39.0811 -0.00228153 -0.0401928
				CHANNELS 6 Xposition Yposition Zposition Zrotation Xrotation Yrotation 
				JOINT Foot_R
				{
					OFFSET -40.9854 0.0 0.0
					CHANNELS 6 Xposition Yposition Zposition Zrotation Xrotation Yrotation 
					JOINT Toes_R
					{
						OFFSET -11.7543 0.0 0.0
						CHANNELS 6 Xposition Yposition Zposition Zrotation Xrotation Yrotation 
						End Site
						{
							OFFSET 0.0 0.0 0.0
						}
					}
				}
			}
		}
	}
}
MOTION
Frames:	8
Frame Time:	0.0333333
0.000000 0.000000 0.000000 0.000000 0.000000 -0.000000 -6.137440 91.926800 -0.543793 85.341100 4.918520 3.290180 15.735700 0.000005 -0.000001 62.952300 86.745800 -60.933500 8.984550 -0.406207 -0.000000 -1.912020 -3.129270 3.985450 16.377300 -0.000001 -0.000001 9.248410 -0.325145 3.411970 6.456720 -0.000001 -0.000000 4.106020 -0.059129 9.267110 12.994200 -0.242716 4.980390 -92.341300 6.910160 -71.230400 5.348090 -0.000007 -0.000001 -73.441500 29.690500 0.369253 24.328600 0.000019 0.000005 13.334600 29.512300 -25.695200 22.291600 -0.000001 0.000005 -4.186460 5.056950 6.083580 12.994500 -0.242716 -4.980390 88.060400 5.682460 -71.118000 -5.348130 -0.000001 -0.000004 -67.427000 -7.506600 -5.968940 -24.328900 0.000322 -0.000009 20.917300 -21.034700 -133.201000 -22.291500 -0.000108 -0.000004 63.291900 5.633540 -13.605900 -2.192480 -6.469440 -0.000000 -170.671000 6.231540 -4.898780 39.081100 -0.000007 -0.000012 0.345067 -0.693640 26.449900 40.985400 -0.000006 -0.000013 -0.686603 11.731600 -75.700100 11.754300 -0.000000 0.000003 0.000696 0.154954 -10.292500 -2.192510 6.469440 -0.000001 -169.869000 13.222700 -176.825000 -39.081100 -0.002282 -0.040193 0.092311 -0.372433 13.436800 -40.985400 0.000008 0.000006 5.965510 0.510768 -70.537200 -11.754300 -0.000006 -0.000006 -0.008915 0.263013 -5.890010
0.000000 0.000000 0.000000 0.000000 0.000000 -0.000000 -6.124710 91.930100 -0.568624 85.338500 4.958350 3.282990 15.735700 0.000005 -0.000001 63.153500 86.760900 -61.154000 8.984550 -0.406207 -0.000000 -1.929940 -3.093880 3.946960 16.377300 -0.000001 -0.000001 9.214110 -0.350123 3.453280 6.456720 -0.000001 -0.000000 4.126100 -0.070133 9.429670 12.994200 -0.242716 4.980390 -92.315900 6.853740 -71.278500 5.348090 -0.000007 -0.000001 -73.422700 29.747700 0.338327 24.328600 0.000019 0.000005 13.374800 29.537000 -25.748200 22.291600 -0.000001 0.000005 -4.291790 5.055720 6.110800 12.994500 -0.242716 -4.980390 88.083500 5.615160 -71.119800 -5.348130 -0.000001 -0.000004 -67.987700 -8.155850 -6.023500 -24.328900 0.000322 -0.000009 16.796900 -17.408800 -134.745000 -22.291500 -0.000108 -0.000004 62.571100 5.556840 -9.034370 -2.192480 -6.469440 -0.000000 -170.680000 6.243930 -4.936710 39.081100 -0.000007 -0.000012 0.346218 -0.695525 26.464000 40.985400 -0.000006 -0.000013 -0.677419 11.732100 -75.705600 11.754300 -0.000000 0.000003 0.000651 0.155831 -10.256900 -2.192510 6.469440 -0.000001 -169.853000 13.167100 -176.854000 -39.081100 -0.002282 -0.040193 0.093657 -0.378155 13.433800 -40.985400 0.000008 0.000006 5.992080 0.409832 -70.561200 -11.754300 -0.000006 -0.000006 -0.009293 0.265944 -5.770180
0.000000 0.000000 0.000000 0.000000 0.000000 -0.000000 -6.115330 91.931600 -0.591433 85.297100 4.997870 3.267310 15.735700 0.000005 -0.000001 63.218400 86.776800 -61.215500 8.984550 -0.406207 -0.000000 -1.955160 -3.073800 3.953310 16.377300 -0.000001 -0.000001 9.269210 -0.375533 3.517070 6.456720 -0.000001 -0.000000 4.085120 -0.094506 9.428250 12.994200 -0.242716 4.980390 -92.294700 6.812140 -71.333400 5.348090 -0.000007 -0.000001 -73.430500 29.706700 0.324250 24.328600 0.000019 0.000005 13.392500 29.605500 -25.731500 22.291600 -0.000001 0.000005 -4.265410 5.058690 6.045040 12.994500 -0.242716 -4.980390 88.112200 5.528200 -71.112100 -5.348130 -0.000001 -0.000004 -68.474900 -8.800550 -6.126590 -24.328900 0.000322 -0.000009 11.527600 -12.480800 -136.658000 -22.291500 -0.000108 -0.000004 62.554300 5.465860 -5.220540 -2.192480 -6.469440 -0.000000 -170.632000 6.250500 -5.010120 39.081100 -0.000007 -0.000012 0.345502 -0.692957 26.501200 40.985400 -0.000006 -0.000013 -0.668044 11.775700 -75.673700 11.754300 -0.000000 0.000003 0.000697 0.154917 -10.294000 -2.192510 6.469440 -0.000001 -169.805000 13.119000 -176.877000 -39.081100 -0.002282 -0.040193 0.092738 -0.375326 13.398500 -40.985400 0.000008 0.000006 6.028070 0.369246 -70.539500 -11.754300 -0.000006 -0.000006 -0.009474 0.267332 -5.713440
0.000000 0.000000 0.000000 0.000000 0.000000 -0.000000 -6.082890 91.941400 -0.606021 85.336900 5.026460 3.252070 15.735700 0.000005 -0.000001 63.070000 86.783500 -61.081900 8.984550 -0.406207 -0.000000 -1.975040 -3.081660 3.923140 16.377300 -0.000001 -0.000001 9.232930 -0.340195 3.494670 6.456720 -0.000001 -0.000000 4.135150 -0.051306 9.473600 12.994200 -0.242716 4.980390 -92.282300 6.764600 -71.306500 5.348090 -0.000007 -0.000001 -73.448100 29.715700 0.349199 24.328600 0.000019 0.000005 13.446600 29.666500 -25.783500 22.291600 -0.000001 0.000005 -4.169440 5.057660 6.067920 12.994500 -0.242716 -4.980390 88.121700 5.497130 -71.102700 -5.348130 -0.000001 -0.000004 -68.706600 -9.343060 -6.181670 -24.328900 0.000322 -0.000009 6.352880 -7.146310 -138.172000 -22.291500 -0.000108 -0.000004 63.136100 5.410760 -3.291300 -2.192480 -6.469440 -0.000000 -170.694000 6.272980 -5.001250 39.081100 -0.000007 -0.000012 0.344026 -0.691840 26.440200 40.985400 -0.000006 -0.000013 -0.646080 11.788000 -75.648000 11.754300 -0.000000 0.000003 0.000730 0.154276 -10.320000 -2.192510 6.469440 -0.000001 -169.864000 13.130000 -176.919000 -39.081100 -0.002282 -0.040193 0.092636 -0.373921 13.432400 -40.985400 0.000008 0.000006 5.916400 0.331271 -70.510800 -11.754300 -0.000006 -0.000006 -0.009093 0.264396 -5.833480
0.000000 0.000000 0.000000 0.000000 0.000000 -0.000000 -6.060980 91.936700 -0.611769 85.330200 5.027880 3.274470 15.735700 0.000005 -0.000001 62.949800 86.772800 -60.950400 8.984550 -0.406207 -0.000000 -1.961380 -3.104160 3.945740 16.377300 -0.000001 -0.000001 9.266240 -0.329909 3.489020 6.456720 -0.000001 -0.000000 4.095510 0.014375 9.349370 12.994200 -0.242716 4.980390 -92.279200 6.757850 -71.313200 5.348090 -0.000007 -0.000001 -73.440800 29.703800 0.395254 24.328600 0.000019 0.000005 13.466500 29.708700 -25.788900 22.291600 -0.000001 0.000005 -4.211840 5.060940 5.995020 12.994500 -0.242716 -4.980390 88.146000 5.421570 -71.088500 -5.348130 -0.000001 -0.000004 -68.876200 -9.656920 -6.197680 -24.328900 0.000322 -0.000009 4.386470 -4.991630 -138.598000 -22.291500 -0.000108 -0.000004 63.547800 5.380220 -2.305950 -2.192480 -6.469440 -0.000000 -170.714000 6.268040 -5.005530 39.081100 -0.000007 -0.000012 0.348583 -0.699373 26.493500 40.985400 -0.000006 -0.000013 -0.623747 11.776700 -75.671900 11.754300 -0.000000 0.000003 0.000745 0.153975 -10.332200 -2.192510 6.469440 -0.000001 -169.861000 13.095400 -176.909000 -39.081100 -0.002282 -0.040193 0.093924 -0.378670 13.454300 -40.985400 0.000008 0.000006 5.985510 0.281319 -70.529200 -11.754300 -0.000006 -0.000006 -0.009041 0.263997 -5.849790
0.000000 0.000000 0.000000 0.000000 0.000000 -0.000000 -6.037000 91.944500 -0.617578 85.334600 5.009020 3.284040 15.735700 0.000005 -0.000001 62.702700 86.771100 -60.688400 8.984550 -0.406207 -0.000000 -1.970220 -3.131850 3.974700 16.377300 -0.000001 -0.000001 9.294780 -0.280085 3.431880 6.456720 -0.000001 -0.000000 4.083820 0.110999 9.274650 12.994200 -0.242716 4.980390 -92.283100 6.777180 -71.332800 5.348090 -0.000007 -0.000001 -73.419900 29.666700 0.473914 24.328600 0.000019 0.000005 13.509600 29.804000 -25.798100 22.291600 -0.000001 0.000005 -4.274840 5.060590 6.002730 12.994500 -0.242716 -4.980390 88.163400 5.364800 -71.070400 -5.348130 -0.000001 -0.000004 -68.766100 -9.254620 -6.012680 -24.328900 0.000322 -0.000009 7.210460 -8.025330 -137.817000 -22.291500 -0.000108 -0.000004 64.056800 5.389400 -2.595710 -2.192480 -6.469440 -0.000000 -170.726000 6.230360 -4.978470 39.081100 -0.000007 -0.000012 0.344380 -0.692066 26.456200 40.985400 -0.000006 -0.000013 -0.614489 11.783200 -75.655800 11.754300 -0.000000 0.000003 0.000715 0.154571 -10.308000 -2.192510 6.469440 -0.000001 -169.879000 13.057600 -176.876000 -39.081100 -0.002282 -0.040193 0.092559 -0.374189 13.411900 -40.985400 0.000008 0.000006 5.974930 0.253091 -70.526400 -11.754300 -0.000006 -0.000006 -0.009215 0.265342 -5.794830
0.000000 0.000000 0.000000 0.000000 0.000000 -0.000000 -6.012670 91.938400 -0.628528 85.324900 4.963270 3.289000 15.735700 0.000005 -0.000001 62.415900 86.761700 -60.378000 8.984550 -0.406207 -0.000000 -1.967010 -3.171200 4.021370 16.377300 -0.000001 -0.000001 9.310820 -0.203877 3.333730 6.456720 -0.000001 -0.000000 4.079930 0.190432 9.226720 12.994200 -0.242716 4.980390 -92.288700 6.796850 -71.339900 5.348090 -0.000007 -0.000001 -73.410800 29.642000 0.538419 24.328600 0.000019 0.000005 13.460300 29.809300 -25.709300 22.291600 -0.000001 0.000005 -4.319500 5.061490 5.982750 12.994500 -0.242716 -4.980390 88.150800 5.423470 -71.140000 -5.348130 -0.000001 -0.000004 -68.269500 -8.317860 -5.659790 -24.328900 0.000322 -0.000009 12.206800 -13.125600 -136.389000 -22.291500 -0.000108 -0.000004 64.697200 5.472560 -5.466550 -2.192480 -6.469440 -0.000000 -170.737000 6.201650 -4.998980 39.081100 -0.000007 -0.000012 0.344146 -0.689978 26.509800 40.985400 -0.000006 -0.000013 -0.593496 11.762000 -75.630700 11.754300 -0.000000 0.000003 0.000741 0.154048 -10.329200 -2.192510 6.469440 -0.000001 -169.859000 12.944900 -176.920000 -39.081100 -0.002282 -0.040193 0.095808 -0.385615 13.485600 -40.985400 0.000008 0.000006 6.008930 0.155538 -70.533500 -11.754300 -0.000006 -0.000006 -0.008974 0.263470 -5.871330
0.000000 0.000000 0.000000 0.000000 0.000000 -0.000000 -6.000660 91.939000 -0.625672 85.329000 4.921480 3.294910 15.735700 0.000005 -0.000001 62.393900 86.746100 -60.333100 8.984550 -0.406207 -0.000000 -1.939500 -3.189290 4.067840 16.377300 -0.000001 -0.000001 9.208440 -0.153640 3.304940 6.456720 -0.000001 -0.000000 4.107090 0.295583 9.091290 12.994200 -0.242716 4.980390 -92.288400 6.786330 -71.315800 5.348090 -0.000007 -0.000001 -73.430500 29.649100 0.550588 24.328600 0.000019 0.000005 13.483600 29.988700 -25.627600 22.291600 -0.000001 0.000005 -4.284200 5.064130 5.924090 12.994500 -0.242716 -4.980390 88.120800 5.515700 -71.152400 -5.348130 -0.000001 -0.000004 -67.714300 -7.366900 -5.372080 -24.328900 0.000322 -0.000009 17.625800 -18.384800 -134.790000 -22.291500 -0.000108 -0.000004 64.990600 5.579200 -10.178500 -2.192480 -6.469440 -0.000000 -170.754000 6.204220 -4.976480 39.081100 -0.000007 -0.000012 0.346882 -0.695491 26.508900 40.985400 -0.000006 -0.000013 -0.590670 11.736400 -75.665800 11.754300 -0.000000 0.000003 0.000740 0.154067 -10.328500 -2.192510 6.469440 -0.000001 -169.880000 12.961800 -176.890000 -39.081100 -0.002282 -0.040193 0.095847 -0.386396 13.464800 -40.985400 0.000008 0.000006 6.079520 0.220156 -70.551500 -11.754300 -0.000006 -0.000006 -0.009061 0.264152 -5.843470
